Description

Sinopse e detalhes

Buscapé (Alexandre Rodrigues) é um jovem pobre, negro e muito sensível, que cresce em um universo de muita violência. Buscapé vive na Cidade de Deus, favela carioca conhecida por ser um dos locais mais violentos da cidade. Amedrontado com a possibilidade de se tornar um bandido, Buscapé acaba sendo salvo de seu destino por causa de seu talento como fotógrafo, o qual permite que siga carreira na profissão. É através de seu olhar atrás da câmera que Buscapé analisa o dia-a-dia da favela onde vive, onde a violência aparenta ser infinita.

Format : Matroska
Format version : Version 2
File size : 822 MiB
Duration : 2h 10mn
Overall bit rate : 882 Kbps
Encoded date : UTC 2013-05-10 21:47:11
Writing application : mkvmerge v5.8.0 ('No Sleep / Pillow') built on Sep 2 2012 15:37:04
Writing library : libebml v1.2.3 + libmatroska v1.3.0

Video
ID : 1
Format : AVC
Format/Info : Advanced Video Codec
Format profile : High@L4.1
Format settings, CABAC : Yes
Format settings, ReFrames : 4 frames
Muxing mode : Header stripping
Codec ID : V_MPEG4/ISO/AVC
Duration : 2h 10mn
Bit rate : 673 Kbps
Width : 720 pixels
Height : 304 pixels
Display aspect ratio : 2.35:1
Frame rate mode : Constant
Frame rate : 23.976 fps
Color space : YUV
Chroma subsampling : 4:2:0
Bit depth : 8 bits
Scan type : Progressive
Bits/(Pixel*Frame) : 0.128
Stream size : 627 MiB (76%)
Title : Cidade de Deus ( by fantasma )
Writing library : x264 core 130 r2273 b3065e6
Encoding settings : cabac=1 / ref=3 / deblock=1:0:0 / analyse=0x3:0x113 / me=hex / subme=7 / psy=1 / psy_rd=1.00:0.00 / mixed_ref=1 / me_range=16 / chroma_me=1 / trellis=1 / 8x8dct=1 / cqm=0 / deadzone=21,11 / fast_pskip=1 / chroma_qp_offset=-2 / threads=3 / lookahead_threads=1 / sliced_threads=0 / nr=0 / decimate=1 / interlaced=0 / bluray_compat=0 / constrained_intra=0 / bframes=3 / b_pyramid=2 / b_adapt=1 / b_bias=0 / direct=1 / weightb=1 / open_gop=0 / weightp=2 / keyint=240 / keyint_min=23 / scenecut=40 / intra_refresh=0 / rc_lookahead=40 / rc=crf / mbtree=1 / crf=23.0 / qcomp=0.60 / qpmin=0 / qpmax=69 / qpstep=4 / vbv_maxrate=62500 / vbv_bufsize=78125 / crf_max=0.0 / nal_hrd=none / ip_ratio=1.40 / aq=1:1.00
Language : Portuguese
Default : Yes
Forced : No

Audio
ID : 2
Format : AC-3
Format/Info : Audio Coding 3
Mode extension : CM (complete main)
Format settings, Endianness : Big
Muxing mode : Header stripping
Codec ID : A_AC3
Duration : 2h 10mn
Bit rate mode : Constant
Bit rate : 192 Kbps
Channel(s) : 2 channels
Channel positions : Front: L R
Sampling rate : 48.0 KHz
Bit depth : 16 bits
Compression mode : Lossy
Delay relative to video : 14ms
Stream size : 179 MiB (22%)
Title : by fantasma
Language : Portuguese
Default : Yes
Forced : No

Text #1
ID : 3
Format : VobSub
Muxing mode : zlib
Codec ID : S_VOBSUB
Codec ID/Info : The same subtitle format used on DVDs
Title : by fantasma
Language : English
Default : No
Forced : No

Text #2
ID : 4
Format : UTF-8
Codec ID : S_TEXT/UTF8
Codec ID/Info : UTF-8 Plain Text
Title : Credito
Language : Portuguese
Default : Yes
Forced : No

Menu
00:00:00.000 : en:Chapter 01
00:04:10.704 : en:Chapter 02
00:05:55.871 : en:Chapter 03
00:08:53.472 : en:Chapter 04
00:11:27.539 : en:Chapter 05
00:15:56.739 : en:Chapter 06
00:20:31.473 : en:Chapter 07
00:24:32.140 : en:Chapter 08
00:27:59.207 : en:Chapter 09
00:30:41.674 : en:Chapter 10
00:34:35.841 : en:Chapter 11
00:37:58.175 : en:Chapter 12
00:40:59.143 : en:Chapter 13
00:46:50.844 : en:Chapter 14
00:50:21.445 : en:Chapter 15
00:55:47.812 : en:Chapter 16
00:58:42.246 : en:Chapter 17
01:03:44.713 : en:Chapter 18
01:05:17.913 : en:Chapter 19
01:09:48.847 : en:Chapter 20
01:12:35.981 : en:Chapter 21
01:20:11.515 : en:Chapter 22
01:23:00.949 : en:Chapter 23
01:27:01.817 : en:Chapter 24
01:31:10.685 : en:Chapter 25
01:35:17.320 : en:Chapter 26
01:40:32.387 : en:Chapter 27
01:44:38.154 : en:Chapter 28
01:48:10.721 : en:Chapter 29
01:54:44.322 : en:Chapter 30
01:58:08.756 : en:Chapter 31
02:00:07.123 : en:Chapter 32
02:02:31.857 : en:Chapter 33
02:04:41.957 : en:Chapter 34